# xmcd
#
# Track frame offsets:
#	150
#	12867
#	28170
#	40155
#	51910
#	64782
#	83760
#	97417
#	108800
#	122617
#	136290
#	149182
#	162335
#	174897
#	185025
#	197880
#	210040
#	223640
#	234237
#	246622
#
# Disc length: 3459
#
# Revision: 1
# Processed by: cddbd v1.5.1PL0 Copyright (c) Steve Scherf et al.
# Submitted via: audiograbber 1.82.02
# Normalized: r0:DSETVAR1
#
DISCID=230d8114
DTITLE=Various Artist - Boss Blues, Volume One
DYEAR=1900
DGENRE=Blues
TTITLE0=Jimmy Reed - Big Boss Man
TTITLE1=Albert King - Born Under A Bad Sign
TTITLE2=John Lee Hooker - Boom Boom
TTITLE3=Little Walter - My Babe
TTITLE4=Tommy Tucker - Hi Heel Sneakers
TTITLE5=Muddy Waters - Got My Mojo Working
TTITLE6=Koko Taylor - Wang Dang Doodle
TTITLE7=Elmore James - Shake Your Money Maker
TTITLE8=Buster Brown - Fannie Mae
TTITLE9=Howling Wolf - Smoke Stack Lightning
TTITLE10=Muddy Waters - Hoochie Coochie Man
TTITLE11=Elmore James - Dust My Broom
TTITLE12=Bo Diddley - I'm A Man
TTITLE13=Jimmy Reed - Ain't That Loving You Baby
TTITLE14=Muddy Waters - I Just Want To Make Love To You
TTITLE15=Howling Wolf - Spoonful
TTITLE16=Lightning Hopkins - Mojo Hand
TTITLE17=Jimmy Reed - Take Out Some Insurance On Me Baby
TTITLE18=Sonny Boy Williamson - Don't Start Me To Talking
TTITLE19=Willie Mabon - Seventh Son
EXTD=
EXTT0=
EXTT1=
EXTT2=
EXTT3=
EXTT4=
EXTT5=
EXTT6=
EXTT7=
EXTT8=
EXTT9=
EXTT10=
EXTT11=
EXTT12=
EXTT13=
EXTT14=
EXTT15=
EXTT16=
EXTT17=
EXTT18=
EXTT19=
PLAYORDER=
